<?xml version="1.0" encoding="utf-8"?>
<!-- Generator: Adobe Illustrator 24.3.0, SVG Export Plug-In . SVG Version: 6.00 Build 0)  -->
<svg version="1.1" id="Layer_1" xmlns="http://www.w3.org/2000/svg" xmlns:xlink="http://www.w3.org/1999/xlink" x="0px" y="0px"
	 viewBox="0 0 32 32" style="enable-background:new 0 0 32 32;" xml:space="preserve">
<g>
	<path d="M30.3,0.5C30,0.2,29.6,0,29.2,0H2.8C2.4,0,2,0.2,1.7,0.5C1.5,0.8,1.4,1.1,1.4,1.5L4.2,28c0.1,0.6,0.5,1.1,1,1.2L15.6,32
		c0.1,0,0.2,0,0.4,0s0.2,0,0.4,0l10.4-2.8c0.6-0.1,1-0.6,1-1.2l2.8-26.4C30.6,1.1,30.5,0.8,30.3,0.5z M24.3,9H10.6l0.4,4.9h12.8
		l-0.9,10.2L16,25.8L9,24v-4.6h2.8v2.4l4.2,1l4.3-1.1l0.5-5.2H8.5L7.5,6.3h16.8V9z"/>
</g>
</svg>
