<?xml version="1.0" encoding="utf-8"?>
<!-- Generator: Adobe Illustrator 24.3.0, SVG Export Plug-In . SVG Version: 6.00 Build 0)  -->
<svg version="1.1" id="Layer_1" xmlns="http://www.w3.org/2000/svg" xmlns:xlink="http://www.w3.org/1999/xlink" x="0px" y="0px"
	 viewBox="0 0 32 32" style="enable-background:new 0 0 32 32;" xml:space="preserve">
<g>
	<path d="M28.5,2.1h-25C1.6,2.1,0,3.6,0,5.6V25c0,1.9,1.6,3.5,3.5,3.5h6.3c0.4,0,0.7-0.3,0.7-0.7s-0.3-0.7-0.7-0.7H3.5
		c-1.2,0-2.1-0.9-2.1-2.1V5.6c0-1.2,0.9-2.1,2.1-2.1h25c1.2,0,2.1,0.9,2.1,2.1V9c0,0.4,0.3,0.7,0.7,0.7C31.7,9.7,32,9.4,32,9V5.6
		C32,3.6,30.4,2.1,28.5,2.1z"/>
	<path d="M19.1,9.1C18.8,9,18.6,9,18.3,9.2l-6.8,5.4H7.7c-1.5,0-2.8,1.2-2.8,2.8v4.2c0,1.5,1.2,2.8,2.8,2.8h3.9l6.8,5.4
		c0.3,0.2,0.7,0.2,1-0.1c0.1-0.1,0.2-0.3,0.2-0.4V9.7C19.5,9.5,19.3,9.2,19.1,9.1z"/>
	<path d="M26.1,9.6c-0.3-0.2-0.8-0.1-0.9,0.3c-0.2,0.3-0.1,0.8,0.3,0.9c0,0,0,0,0,0c4.8,2.5,6.6,8.4,4.1,13.2
		c-0.9,1.7-2.3,3.2-4.1,4.1c-0.3,0.2-0.5,0.6-0.3,0.9c0.2,0.3,0.6,0.5,0.9,0.3c0,0,0,0,0,0c5.4-2.9,7.5-9.6,4.7-15
		C29.7,12.3,28,10.7,26.1,9.6z"/>
	<path d="M27.1,19.5c0-2.2-1.2-4.3-3.1-5.4c-0.3-0.2-0.8-0.1-0.9,0.3c-0.2,0.3-0.1,0.7,0.2,0.9c2.3,1.3,3.1,4.3,1.8,6.6
		c-0.4,0.7-1,1.4-1.8,1.8c-0.3,0.2-0.5,0.6-0.3,0.9c0.2,0.3,0.6,0.5,0.9,0.3c0,0,0,0,0,0C25.9,23.8,27.1,21.7,27.1,19.5z"/>
</g>
</svg>
