<?xml version="1.0" encoding="utf-8"?>
<!-- Generator: Adobe Illustrator 24.3.0, SVG Export Plug-In . SVG Version: 6.00 Build 0)  -->
<svg version="1.1" id="Layer_1" xmlns="http://www.w3.org/2000/svg" xmlns:xlink="http://www.w3.org/1999/xlink" x="0px" y="0px"
	 viewBox="0 0 32 32" style="enable-background:new 0 0 32 32;" xml:space="preserve">
<g>
	<path d="M24.4,19.4l-0.5,0.3c-0.5,0.3-1.1,0.4-1.7,0.4c-0.9,0-3.5,0-3.5-4s2.6-4,3.5-4c0.6,0,1.2,0.1,1.7,0.4l0.5,0.3l1.2-2.4
		L25,10c-0.9-0.4-1.9-0.7-2.9-0.7c-3.9,0-6.2,2.5-6.2,6.7s2.3,6.7,6.2,6.7c1,0,2-0.2,2.9-0.6l0.5-0.3L24.4,19.4z"/>
	<path d="M16,0C7.2,0,0,7.2,0,16s7.2,16,16,16s16-7.2,16-16C32,7.2,24.8,0,16,0z M16,29.3c-7.4,0-13.3-6-13.3-13.3S8.6,2.7,16,2.7
		s13.3,6,13.3,13.3C29.3,23.4,23.4,29.3,16,29.3z"/>
	<path d="M13.7,19.4l-0.5,0.3c-0.5,0.3-1.1,0.4-1.7,0.4C10.6,20,8,20,8,16s2.6-4,3.5-4c0.6,0,1.2,0.1,1.7,0.4l0.5,0.3l1.2-2.4
		L14.4,10c-0.9-0.4-1.9-0.7-2.9-0.7c-3.9,0-6.2,2.5-6.2,6.7s2.3,6.7,6.2,6.7c1,0,2-0.2,2.9-0.6l0.5-0.3L13.7,19.4z"/>
</g>
</svg>
