<?xml version="1.0" encoding="utf-8"?>
<!-- Generator: Adobe Illustrator 24.3.0, SVG Export Plug-In . SVG Version: 6.00 Build 0)  -->
<svg version="1.1" id="Layer_1" xmlns="http://www.w3.org/2000/svg" xmlns:xlink="http://www.w3.org/1999/xlink" x="0px" y="0px"
	 viewBox="0 0 1000 640" style="enable-background:new 0 0 1000 640;" xml:space="preserve">
<style type="text/css">
	.st0{fill:#FFFFFF;}
	.st1{fill:url(#SVGID_1_);}
	.st2{opacity:0.8;fill:url(#SVGID_2_);enable-background:new    ;}
	.st3{fill:url(#SVGID_3_);}
	.st4{opacity:0.8;fill:url(#SVGID_4_);enable-background:new    ;}
	.st5{fill:url(#SVGID_5_);}
	.st6{fill:url(#SVGID_6_);}
	.st7{fill:url(#SVGID_7_);}
	.st8{fill:url(#SVGID_8_);}
	.st9{fill:url(#SVGID_9_);}
	.st10{fill:url(#SVGID_10_);}
	.st11{fill:url(#SVGID_11_);}
	.st12{fill:url(#SVGID_12_);}
	.st13{fill:url(#SVGID_13_);}
	.st14{fill:url(#SVGID_14_);}
</style>
<rect class="st0" width="1000" height="640"/>
<g>
	
		<linearGradient id="SVGID_1_" gradientUnits="userSpaceOnUse" x1="1347.8899" y1="277.6949" x2="1234.8939" y2="767.3445" gradientTransform="matrix(0 -1 -1 0 1279.45 1546.75)">
		<stop  offset="0" style="stop-color:#DEFFA4"/>
		<stop  offset="0.2238" style="stop-color:#DBFFA6"/>
		<stop  offset="0.4165" style="stop-color:#D0FFAA"/>
		<stop  offset="0.5977" style="stop-color:#BEFFB2"/>
		<stop  offset="0.7719" style="stop-color:#A5FFBE"/>
		<stop  offset="0.9396" style="stop-color:#85FFCC"/>
		<stop  offset="1" style="stop-color:#78FFD2"/>
	</linearGradient>
	<path class="st1" d="M1000,534.3c0,0-32.4-113.4-79.6-113.4c-47.2,0-113.4,104-212,56.7s-7.8-157.9-62.7-203.8
		c-54.9-45.9-161.6-19.5-171-159.8C468,13.5,411.3,0.1,411.3,0.1h588.6L1000,534.3z"/>
	
		<linearGradient id="SVGID_2_" gradientUnits="userSpaceOnUse" x1="1325.4044" y1="375.1321" x2="1233.7025" y2="772.5078" gradientTransform="matrix(0 -1 -1 0 1279.45 1546.75)">
		<stop  offset="0" style="stop-color:#95E5AC;stop-opacity:0"/>
		<stop  offset="0.2564" style="stop-color:#90E5AC;stop-opacity:0.2564"/>
		<stop  offset="0.5515" style="stop-color:#82E3AE;stop-opacity:0.5515"/>
		<stop  offset="0.8648" style="stop-color:#6BE1B0;stop-opacity:0.8648"/>
		<stop  offset="1" style="stop-color:#5FE0B1"/>
	</linearGradient>
	<path class="st2" d="M1000,534.3V481c-13.1-33.6-38-84.4-69.6-84.4c-47.2,0-113.4,104-212,56.7s-7.8-157.9-62.7-203.8
		c-54.9-45.9-161.6-19.5-171-159.8c-3.1-45.4-16.3-73.1-29.9-89.7h-43.6c0,0,56.7,13.4,63.5,113.9c9.5,140.4,116.2,113.9,171,159.8
		c54.8,45.9-36,156.5,62.7,203.8s164.7-56.7,212-56.7C967.6,420.9,1000,534.3,1000,534.3z"/>
	
		<linearGradient id="SVGID_3_" gradientUnits="userSpaceOnUse" x1="1394.6716" y1="443.5404" x2="1185.2863" y2="649.3566" gradientTransform="matrix(0 -1 -1 0 1279.45 1546.75)">
		<stop  offset="0" style="stop-color:#BAED6A"/>
		<stop  offset="3.194630e-03" style="stop-color:#B9ED6A"/>
		<stop  offset="0.2709" style="stop-color:#78DA71"/>
		<stop  offset="0.5138" style="stop-color:#44CB77"/>
		<stop  offset="0.7239" style="stop-color:#1FC07B"/>
		<stop  offset="0.8931" style="stop-color:#08B97D"/>
		<stop  offset="1" style="stop-color:#00B77E"/>
	</linearGradient>
	<path class="st3" d="M999.9,467.6c0,0-24.7-92.7-74.1-98.4c-49.2-5.7-109.3,46-159.9,42c-55.4-4.4-56.6-46-52.9-96.7
		c3.6-50.7-10-97.7-57.6-111.9C607.8,188.3,552.5,174.4,531.9,98L511.3,0h488.7V467.6z"/>
	
		<linearGradient id="SVGID_4_" gradientUnits="userSpaceOnUse" x1="1291.4806" y1="544.9361" x2="1203.2048" y2="631.7072" gradientTransform="matrix(0 -1 -1 0 1279.45 1546.75)">
		<stop  offset="0" style="stop-color:#00B77E;stop-opacity:0"/>
		<stop  offset="0.4941" style="stop-color:#00A26C;stop-opacity:0.4968"/>
		<stop  offset="0.9946" style="stop-color:#00915D"/>
	</linearGradient>
	<path class="st4" d="M999.9,467.6v-65.4c-11.8-27.2-32.6-61.7-62.1-65.1c-49.2-5.7-109.3,46-159.9,42c-55.4-4.4-56.6-46-52.9-96.7
		c3.6-50.7-10-97.7-57.6-111.9c-47.6-14.2-135.5-27-91.8-170.4h-31.7h-32.6L532,98c20.6,76.3,76,90.3,123.5,104.5
		c47.6,14.2,61.3,61.2,57.6,111.9c-3.6,50.7-2.5,92.4,52.9,96.7c50.7,4,110.8-47.7,159.9-42C975.1,374.9,999.9,467.6,999.9,467.6z"
		/>
	
		<linearGradient id="SVGID_5_" gradientUnits="userSpaceOnUse" x1="1203.7886" y1="650.7439" x2="1406.0381" y2="398.3791" gradientTransform="matrix(0 -1 -1 0 1279.45 1546.75)">
		<stop  offset="5.376050e-03" style="stop-color:#00915D"/>
		<stop  offset="0.3651" style="stop-color:#009460"/>
		<stop  offset="0.6477" style="stop-color:#009E68"/>
		<stop  offset="0.9033" style="stop-color:#00AF77"/>
		<stop  offset="1" style="stop-color:#00B77E"/>
	</linearGradient>
	<path class="st5" d="M1000,403.5c0,0-26.8-64.5-86.9-69.6c-59.9-5.2-112.8,23.3-147.2-19.3c-34.5-42.6-9.6-108.9-29.9-133.3
		c-38.5-46.1-132.2-16.1-152.1-70.7C566.4,62.5,609.7,0.1,609.7,0.1h390.2L1000,403.5z"/>
	
		<linearGradient id="SVGID_6_" gradientUnits="userSpaceOnUse" x1="1238.6521" y1="607.332" x2="1336.5635" y2="485.1593" gradientTransform="matrix(0 -1 -1 0 1279.45 1546.75)">
		<stop  offset="0.2957" style="stop-color:#454579"/>
		<stop  offset="0.3587" style="stop-color:#3E4D76;stop-opacity:0.9099"/>
		<stop  offset="0.7841" style="stop-color:#117E64;stop-opacity:0.3013"/>
		<stop  offset="0.9946" style="stop-color:#00915D;stop-opacity:0"/>
	</linearGradient>
	<path class="st6" d="M941.6,298.3c-59.9-5.2-112.8,23.3-147.2-19.3c-34.5-42.6-9.6-108.9-29.9-133.3
		c-38.5-46.1-132.2-16.1-152.1-70.7c-9-24.7-2-53.2,7-75h-9.7c0,0-43.3,62.4-25.7,110.4c19.9,54.5,113.6,24.5,152.1,70.7
		c20.4,24.3-4.7,90.6,29.9,133.3s87.4,14.1,147.2,19.3c60,5.2,86.9,69.6,86.9,69.6v-76.5C986,313,966.7,300.5,941.6,298.3z"/>
	
		<linearGradient id="SVGID_7_" gradientUnits="userSpaceOnUse" x1="1229.3995" y1="680.0121" x2="1605.8185" y2="158.6374" gradientTransform="matrix(0 -1 -1 0 1279.45 1546.75)">
		<stop  offset="0" style="stop-color:#30305C"/>
		<stop  offset="0.2336" style="stop-color:#1F535C"/>
		<stop  offset="0.5968" style="stop-color:#00915D"/>
		<stop  offset="0.9366" style="stop-color:#00915D"/>
		<stop  offset="0.9946" style="stop-color:#00915D"/>
	</linearGradient>
	<path class="st7" d="M999.9,313.9c0,0-51.8-30.4-100.6-26.9c-44.4,3.2-97.7,39.6-117.2-10.7c-20.4-52.8,45.5-113.1-1.9-155.8
		C727.1,72.6,647.7,117,643.1,0.1h356.9L999.9,313.9L999.9,313.9z"/>
	
		<linearGradient id="SVGID_8_" gradientUnits="userSpaceOnUse" x1="1276.5096" y1="614.7742" x2="1475.0035" y2="339.842" gradientTransform="matrix(0 -1 -1 0 1279.45 1546.75)">
		<stop  offset="0" style="stop-color:#30305C;stop-opacity:0.9"/>
		<stop  offset="0.1379" style="stop-color:#2E365E;stop-opacity:0.7759"/>
		<stop  offset="0.3272" style="stop-color:#284862;stop-opacity:0.6055"/>
		<stop  offset="0.5463" style="stop-color:#1D6569;stop-opacity:0.4084"/>
		<stop  offset="0.7856" style="stop-color:#0F8D73;stop-opacity:0.193"/>
		<stop  offset="1" style="stop-color:#00B77E;stop-opacity:0"/>
	</linearGradient>
	<path class="st8" d="M999.9,274.8c-17.9-5.4-38.7-9.3-59-7.8c-48.3,3.5-106.4,43.1-127.6-11.6c-22.2-57.4,49.5-123.1-2-169.7
		c-49.3-44.5-119.5-16-142.2-85.5h-26c4.6,116.8,84,72.5,137.2,120.4c47.3,42.7-18.6,103,1.8,155.8c19.4,50.3,72.8,13.9,117.2,10.7
		c48.9-3.5,100.6,26.9,100.6,26.9V274.8L999.9,274.8z"/>
	
		<linearGradient id="SVGID_9_" gradientUnits="userSpaceOnUse" x1="1380.1118" y1="518.1973" x2="1522.0892" y2="283.3199" gradientTransform="matrix(0 -1 -1 0 1279.45 1546.75)">
		<stop  offset="0" style="stop-color:#30305C"/>
		<stop  offset="0.1691" style="stop-color:#2C385C"/>
		<stop  offset="0.4243" style="stop-color:#224C5C"/>
		<stop  offset="0.7321" style="stop-color:#116E5D"/>
		<stop  offset="1" style="stop-color:#00915D"/>
	</linearGradient>
	<path class="st9" d="M999.9,0.1v229.1c0,0-183.3,60.6-174.2-22.4c9.4-84.8,33.6-122-4.2-139.9c-40.1-19-128.8,5.4-126.9-66.8H999.9
		z"/>
	
		<linearGradient id="SVGID_10_" gradientUnits="userSpaceOnUse" x1="1380.1118" y1="518.1973" x2="1522.0892" y2="283.3199" gradientTransform="matrix(0 -1 -1 0 1279.45 1546.75)">
		<stop  offset="0" style="stop-color:#30305C"/>
		<stop  offset="0.1691" style="stop-color:#2C385C"/>
		<stop  offset="0.4243" style="stop-color:#224C5C"/>
		<stop  offset="0.7321" style="stop-color:#116E5D"/>
		<stop  offset="1" style="stop-color:#00915D"/>
	</linearGradient>
	<path class="st10" d="M999.9,0.1v229.1c0,0-183.3,60.6-174.2-22.4c9.4-84.8,33.6-122-4.2-139.9c-40.1-19-128.8,5.4-126.9-66.8
		H999.9z"/>
	
		<linearGradient id="SVGID_11_" gradientUnits="userSpaceOnUse" x1="1384.4609" y1="511.0752" x2="1465.1848" y2="377.5313" gradientTransform="matrix(0 -1 -1 0 1279.45 1546.75)">
		<stop  offset="0.2043" style="stop-color:#30305C"/>
		<stop  offset="0.5439" style="stop-color:#373765;stop-opacity:0.5732"/>
		<stop  offset="1" style="stop-color:#454579;stop-opacity:0"/>
	</linearGradient>
	<path class="st11" d="M857.4,188.1c10.3-93.6,37.1-134.7-4.7-154.5c-34-16.1-99.6-4-127.2-33.5h-30.9c-2,72.2,86.7,47.8,126.9,66.8
		c37.8,17.9,13.5,55.1,4.2,139.9c-9.2,82.9,174.2,22.4,174.2,22.4v-3C940.7,239.4,850.6,249.9,857.4,188.1z"/>
	
		<linearGradient id="SVGID_12_" gradientUnits="userSpaceOnUse" x1="1419.3875" y1="403.6631" x2="1557.9832" y2="234.5291" gradientTransform="matrix(0 -1 -1 0 1279.45 1546.75)">
		<stop  offset="0" style="stop-color:#30305C"/>
		<stop  offset="0.1842" style="stop-color:#2E355C"/>
		<stop  offset="0.3971" style="stop-color:#27435C"/>
		<stop  offset="0.6242" style="stop-color:#1B5A5C"/>
		<stop  offset="0.8596" style="stop-color:#0B7A5D"/>
		<stop  offset="1" style="stop-color:#00915D"/>
	</linearGradient>
	<path class="st12" d="M999.9,178.6c0,0-104.6,19.3-110.4-41.2c-5.9-60.5,29.3-78.9-4.9-96.9c-34.2-18-39.9-40.4-39.9-40.4h155.4
		L999.9,178.6z"/>
	
		<linearGradient id="SVGID_13_" gradientUnits="userSpaceOnUse" x1="1419.2157" y1="404.2724" x2="1557.7814" y2="235.1753" gradientTransform="matrix(0 -1 -1 0 1279.45 1546.75)">
		<stop  offset="0" style="stop-color:#30305C"/>
		<stop  offset="0.1842" style="stop-color:#2E355C"/>
		<stop  offset="0.3971" style="stop-color:#27435C"/>
		<stop  offset="0.6242" style="stop-color:#1B5A5C"/>
		<stop  offset="0.8596" style="stop-color:#0B7A5D"/>
		<stop  offset="1" style="stop-color:#00915D"/>
	</linearGradient>
	<path class="st13" d="M999.9,178.6c0,0-105.4,19.3-111.2-41.2c-5.9-60.5,29.3-78.9-4.9-96.9c-34.2-18-39.9-40.4-39.9-40.4h155.4
		L999.9,178.6z"/>
	
		<linearGradient id="SVGID_14_" gradientUnits="userSpaceOnUse" x1="1444.5798" y1="426.0437" x2="1465.5369" y2="311.9446" gradientTransform="matrix(0 -1 -1 0 1279.45 1546.75)">
		<stop  offset="0.1344" style="stop-color:#22223B"/>
		<stop  offset="0.4261" style="stop-color:#2C2C4C;stop-opacity:0.663"/>
		<stop  offset="1" style="stop-color:#454579;stop-opacity:0"/>
	</linearGradient>
	<path class="st14" d="M915.6,121.9c-6.8-70.7,65.6-68.9,32-103C940.8,12,926.1,3,921.9,0.1h-77.4c0,0,5.7,22.4,39.9,40.4
		s-0.9,36.4,4.9,96.9C895.2,197.9,1000,179,1000,179v-5.2C964.1,173.3,919.7,163.8,915.6,121.9z"/>
</g>
</svg>
