<?xml version="1.0" encoding="utf-8"?>
<!-- Generator: Adobe Illustrator 24.3.0, SVG Export Plug-In . SVG Version: 6.00 Build 0)  -->
<svg version="1.1" id="Layer_1" xmlns="http://www.w3.org/2000/svg" xmlns:xlink="http://www.w3.org/1999/xlink" x="0px" y="0px"
	 viewBox="0 0 1000 640" style="enable-background:new 0 0 1000 640;" xml:space="preserve">
<style type="text/css">
	.st0{fill:#A5FFBE;}
	.st1{opacity:0.5;}
	.st2{fill:none;stroke:#00915D;stroke-width:5;stroke-miterlimit:10;}
</style>
<rect class="st0" width="1000" height="640"/>
<g class="st1">
	<path class="st2" d="M677.7,142.3c-1.7-1.7-4.3-2.6-7.7-2.6c-7.7,0.9-188,31.8-261.8,105.6C351.5,302,355,365.5,364.4,403.3
		l88.4-60.1c4.3-2.6,9.4,2.6,5.1,6.9L322.3,485.6c-3.4,3.4-3.4,8.6,0,12c1.7,1.7,3.4,2.6,6,2.6s4.3-0.9,6-2.6l53.2-53.2
		c11.2,5.1,38.6,16.3,73.8,16.3c42.9,0,81.5-16.3,114.2-48.9c79-79,103.9-254.9,104.7-262.6C680.2,146.6,679.4,144.1,677.7,142.3z"
		/>
</g>
</svg>
